P2
8 8
10
1 1 0 0 0 0 0 0 
1 2 0 0 0 0 0 0 
0 0 0 0 0 0 0 0 
0 0 0 0 0 0 0 0 
0 0 0 0 0 0 0 0 
0 0 0 0 0 1 1 1 
0 0 0 0 0 1 2 3 
0 0 0 0 0 1 5 6 
