P2
5 5
10
3 3 3 3 5 
2 2 2 2 1
2 2 2 3 2
2 2 2 4 5
2 2 2 2 1